{"title":"The Football League Show 02.02.13 ","uid":8097776,"size":912212831,"categoryP":"video","categoryS":"tv_shows","magnet":"?xt=urn:btih:542af9ab6d1386d82b699a98d4994cc4168b7227&amp;dn=The+Football+League+Show+02.02.13+&amp;tr=udp%3A%2F%2Ftracker.openbittorrent.com%3A80&amp;tr=udp%3A%2F%2Fopen.demonii.com%3A1337&amp;tr=udp%3A%2F%2Ftracker.coppersurfer.tk%3A6969&amp;tr=udp%3A%2F%2Fexodus.desync.com%3A6969","seeders":1,"leechers":0,"uploader":"rugbybill","files":2,"time":1359896651,"description":"SPORT: The Football League Show\nOn: BBC 1    \nDate: Sunday 3rd February 2013 \nTime: 00:00 to 01:15 \n\nManish Bhasin presents all the action from the Football League, with Malky Mackay's Cardiff side at Leeds as Neil Warnock bids to reignite United's chase for a play-off place. Leicester have been firing on all cylinders since the arrival of their prolific new striker Chris Wood, and now the Foxes are at home to Wolves. Plus action from the top of League One as Crawley entertain Swindon.\n\n\nGeneral\nComplete name                            : 2013.02.02.The.Football.League.Show.pdtv.x264.mp4\nFormat                                   : MPEG-4\nFormat profile                           : Base Media\nCodec ID                                 : isom\nFile size                                : 870 MiB\nDuration                                 : 1h 14mn\nOverall bit rate mode                    : Variable\nOverall bit rate                         : 1 628 Kbps\n\nVideo\nID                                       : 1\nFormat                                   : AVC\nFormat/Info                              : Advanced Video Codec\nFormat profile                           : &lt;a class=&quot;__cf_email__&quot; href=&quot;/cdn-cgi/l/email-protection&quot; data-cfemail=&quot;fbb3929c93bbb7c8d5ca&quot;&gt;[email&amp;#160;protected]&lt;/a&gt;&lt;script cf-hash='f9e31' type=&quot;text/javascript&quot;&gt;\n/* &lt;![CDATA[ */!function(){try{var t=&quot;currentScript&quot;in document?document.currentScript:function(){for(var t=document.getElementsByTagName(&quot;script&quot;),e=t.length;e--;)if(t[e].getAttribute(&quot;cf-hash&quot;))return t[e]}();if(t&amp;&amp;t.previousSibling){var e,r,n,i,c=t.previousSibling,a=c.getAttribute(&quot;data-cfemail&quot;);if(a){for(e=&quot;&quot;,r=parseInt(a.substr(0,2),16),n=2;a.length-n;n+=2)i=parseInt(a.substr(n,2),16)^r,e+=String.fromCharCode(i);e=document.createTextNode(e),c.parentNode.replaceChild(e,c)}}}catch(u){}}();/* ]]&gt; */&lt;/script&gt;\nFormat settings, CABAC                   : Yes\nFormat settings, ReFrames                : 5 frames\nCodec ID                                 : avc1\nCodec ID/Info                            : Advanced Video Coding\nDuration                                 : 1h 14mn\nBit rate                                 : 1 495 Kbps\nMaximum bit rate                         : 6 022 Kbps\nWidth                                    : 704 pixels\nHeight                                   : 560 pixels\nDisplay aspect ratio                     : 16:9\nOriginal display aspect ratio            : 16:9\nFrame rate mode                          : Constant\nFrame rate                               : 25.000 fps\nColor space                              : YUV\nChroma subsampling                       : 4:2:0\nBit depth                                : 8 bits\nScan type                                : Progressive\nBits/(Pixel*Frame)                       : 0.152\nStream size                              : 799 MiB (92%)\nWriting library                          : x264 core 129 r2230 1cffe9f\n\nAudio\nID                                       : 2\nFormat                                   : AAC\nFormat/Info                              : Advanced Audio Codec\nFormat profile                           : LC\nCodec ID                                 : 40\nDuration                                 : 1h 14mn\nBit rate mode                            : Variable\nBit rate                                 : 128 Kbps\nMaximum bit rate                         : 148 Kbps\nChannel(s)                               : 2 channels\nChannel positions                        : Front: L R\nSampling rate                            : 48.0 KHz\nCompression mode                         : Lossy\nDelay relative to video                  : 80ms\nStream size                              : 68.4 MiB (8%)\nLanguage                                 : English\n\n\n","torrent":{"xt":"urn:btih:542af9ab6d1386d82b699a98d4994cc4168b7227","amp;dn":"The+Football+League+Show+02.02.13+","amp;tr":["udp%3A%2F%2Ftracker.openbittorrent.com%3A80","udp%3A%2F%2Fopen.demonii.com%3A1337","udp%3A%2F%2Ftracker.coppersurfer.tk%3A6969","udp%3A%2F%2Fexodus.desync.com%3A6969"],"infoHash":"542af9ab6d1386d82b699a98d4994cc4168b7227","infoHashBuffer":{"type":"Buffer","data":[84,42,249,171,109,19,134,216,43,105,154,152,212,153,76,196,22,139,114,39]},"announce":[],"urlList":[]}}